<svg version="1.2" xmlns="http://www.w3.org/2000/svg" viewBox="0 0 167 120" width="500" height="359">
	<style>
		.s0 { opacity: .14;fill: #f6fc00 } 
		.s1 { opacity: .17;fill: #000000 } 
		.s2 { opacity: .27;fill: #f0a800 } 
		.s3 { opacity: .32;fill: #000000 } 
		.s4 { opacity: .33;fill: #f5f900 } 
		.s5 { opacity: .45;fill: #eda000 } 
		.s6 { opacity: .47;fill: #000000 } 
		.s7 { opacity: .6;fill: #f09100 } 
		.s8 { opacity: .61;fill: #000000 } 
		.s9 { opacity: .66;fill: #af5500 } 
		.s10 { opacity: .69;fill: #521800 } 
		.s11 { opacity: .75;fill: #de7200 } 
		.s12 { opacity: .75;fill: #000000 } 
		.s13 { opacity: .87;fill: #000000 } 
		.s14 { opacity: .88;fill: #d16100 } 
		.s15 { opacity: .98;fill: #9e3f00 } 
		.s16 { opacity: .99;fill: #5a0800 } 
		.s17 { opacity: .99;fill: #290000 } 
		.s18 { opacity: .99;fill: #000000 } 
	</style>
	<g id="Background">
		<path id="Path 0" class="s0" d="m99 108h1v1h-1zm-70 4h1v1h-1zm65 0h1v1h-1zm15 1h1v1h-1z"/>
		<path id="Path 1" class="s1" d="m121 0h1v1h-1zm17 0h1v1h-1zm-54 10h1v1h-1zm-64 2h1v1h-1zm127 10h1v1h-1zm-45 5h1v1h-1zm48 1h1v1h-1zm-50 2h1v1h-1zm66 8v-7h1v7zm-15 1v-6h1v6zm-54-3h1v1h-1zm-16 5l1-2v2zm15-2h1v1h-1zm-1 12v-7h1v7zm70-7h1v1h-1zm-1 3h1v1h-1zm-2 6h1v1h-1zm-35 2h1v1h-1zm34 0h1v1h-1zm-1 2h1v1h-1zm-79 1h1v1h-1zm48 0h1v1h-1zm2 3h1v1h-1zm25 2h1v1h-1zm-73 1h1v1h-1zm1 2h1v1h-1zm2 3h1v1h-1zm50 0h1v1h-1zm2 3h1v1h-1zm-138 3h1v1h-1zm133 1h1v1h-1zm23 3h1v1h-1zm-55 2h1v1h-1zm51 2h1v1h-1zm-36 19h1v1h-1zm24 3h1v1h-1zm-42 3h1v1h-1zm41 2h1v1h-1zm-96 9h1v1h-1z"/>
		<path id="Path 2" class="s2" d="m8 93h1v1h-1zm88 1h1v1h-1zm3 2h1v1h-1zm47 6h1v1h-1zm-69 12h1v1h-1zm-44 4h1v1h-1zm79 0h1v1h-1zm-77 1h1v1h-1zm79 0h1v1h-1z"/>
		<path id="Path 3" class="s3" d="m122 0h1v1h-1zm4 14v-1h6v1zm-5 0h1v1h-1zm15 0h1v1h-1zm29 12h1v1h-1zm-14 6h1v1h-1zm0 7h1v1h-1zm-56 4h1v1h-1zm70 0h1v1h-1zm-15 1h1v1h-1zm-25 4h1v1h-1zm38 2h1v1h-1zm-68 1h1v1h-1zm30 0h1v1h-1zm1 2h1v1h-1zm18 2h1v1h-1zm14 5h1v1h-1zm-76 1h1v1h-1zm51 3h1v1h-1zm2 3h1v1h-1zm-18 4v-1h3v1zm16 5v-3l1 3zm7-1h1v1h-1zm-140 4v-3h1v3zm70-1h1v1h-1zm62 0h1v1h-1zm10 0h1v1h-1zm-45 1h1v1h-1zm2 1h1v1h-1zm45 1h1v1h-1zm-141 1h1v1h-1zm63 0h1v1h-1zm38 0h1v1h-1zm23 0h1v1h-1zm-19 1h1v1h-1zm16 0h1v1h-1zm-35 11h1v1h-1zm27 7h1v1h-1zm-74 1h1v1h-1zm39 0h1v1h-1zm66 1v-1h9v1h-1zm-17 1h1v1h-1zm10 0h1v1h-1zm-34 1h1v1h-1zm9 1h1v1h-1zm-10 2h1v1h-1zm-71 3v-2h1v2zm95-2h1v1h-1zm10 0h1v1h-1zm-1 5h1v1h-1zm-99 2v-1h2v1zm79-1h1v1h-1zm32 1v-1h1l9 1zm-47 1h1v1h-1zm-77 1h1v1h-1zm111 0h1v1h-1zm23 0h1v1h-1zm-68 1h1v1h-1zm29 0h1v1h-1z"/>
		<path id="Path 4" class="s4" d="m101 104v-3h1v3zm44-3h1v1h-1zm-20 3h1v1h-1zm-50 1h1v1h-1zm35 1h1v1h-1zm-35 3h1v1h-1zm49 0h1v1h-1zm-95 3v-2h1v2zm80 1v-2h1v2zm-13 2h1v1h-1zm15 2h1v1h-1zm-13 1h1v1h-1z"/>
		<path id="Path 5" class="s5" d="m98 95h1v1h-1zm57 8h1v1h-1zm-80 6v-3h1v3zm18 1h1v1h-1zm-17 2h1v1h-1zm-45 4h1v1h-1zm1 1h1v1h-1zm48 0h1v1h-1zm61 1h1v1h-1zm-140 1h1v1h-1zm132 0h1v1h-1z"/>
		<path id="Path 6" class="s6" d="m137 0h1v1h-1zm-53 9h1v1h-1zm-65 1h1v1h-1zm3 3h1v1h-1zm127 12h1v1h-1zm-65 6h1v1h-1zm67 0h1v1h-1zm-53 2h1v1h-1zm-2 5h1v1h-1zm55 2h1v1h-1zm-70 1h1v1h-1zm84 1h1v1h-1zm-16 5h1v1h-1zm-24 4v-2h1v2zm-30 1h1v1h-1zm67 0h1v1h-1zm-81 5h1v1h-1zm16 1h1v1h-1zm55 10h1v1h-1zm-42 1h1v1h-1zm6 1h1v1h-1zm40 8h1v1h-1zm-155 2h1v1h-1zm30 12h1v1h-1zm75 6h1v1h-1zm-65 4h1v1h-1zm65 2h1v1h-1zm-72 7h1v1h-1zm83 4h1v1h-1z"/>
		<path id="Path 7" class="s7" d="m100 97h1v1h-1zm1 3h1v1h-1zm25 0h1v1h-1zm10 0h1v1h-1zm9 0h1v1h-1zm-34 2h1v1h-1zm-67 1h1v1h-1zm57 1h1v1h-1zm24 1h1v1h-1zm10 0h1v1h-1zm-35 2h1v1h-1zm10 0h1v1h-1zm14 3h1v1h-1zm10 0h1v1h-1zm-96 1h1v1h-1zm57 2h1v1h-1zm-65 1h1v1h-1zm48 1h1v1h-1zm32 0h1v1h-1zm23 0h1v1h-1zm-36 1h1v1h-1zm2 3h1v1h-1z"/>
		<path id="Path 8" class="s8" d="m123 0h1v1h-1zm13 0h1v1h-1zm-112 1h1v1h-1zm94 0h1v1h-1zm23 0h1v1h-1zm-122 9v-3h1v3zm106 3h1v1h-1zm7 0h1v1h-1zm30 5h1v1h-1zm1 2h1v1h-1zm1 3h1v1h-1zm-78 4h1v1h-1zm64 0h1v1h-1zm15 0h1v1h-1zm-80 2h1v1h-1zm-2 5h1v1h-1zm-1 3h1v1h-1zm69 4h1v1h-1zm14 0h1v1h-1zm-84 1h1v1h-1zm14 0h1v1h-1zm55 3h1v1h-1zm14 1h1v1h-1zm-23 5h1v1h-1zm-60 5h1v1h-1zm15 0h1v1h-1zm-14 4h1v1h-1zm1 3h1v1h-1zm24 5h1v1h-1zm18 1h1v1h-1zm-10 1h1v1h-1zm5 0h1v1h-1zm36 5h1v1h-1zm0 2h1v1h-1zm-47 6h1v1h-1zm14 0h1v1h-1zm-7 18v-2l1 2zm-66 2h1v1h-1zm80 0h1v1h-1zm10 0h1v1h-1zm-25 2h1v1h-1zm14 3h1v1h-1zm10 0h1v1h-1zm-25 5v-3h1v3zm24 0h1v1h-1zm-100 2h1v1h-1zm56 2h1v1h-1zm66 0h1v1h-1z"/>
		<path id="Path 9" class="s9" d="m84 119h1v1h-1z"/>
		<path id="Path 10" class="s10" d="m90 89h1v1h-1zm-47 13h1v1h-1zm56 7h1v1h-1zm-7 5h1v1h-1zm-51 1h1v1h-1zm78 0h1v1h-1z"/>
		<path id="Path 11" class="s11" d="m101 99h1v1h-1zm25 2h1v1h-1zm10 0h1v1h-1zm-60 1h1v1h-1zm35 1h1v1h-1zm14 3h1v1h-1zm10 0h1v1h-1zm-105 1h1v1h-1zm62 1h1v1h-1zm18 0h1v1h-1zm-34 3h1v1h-1zm58 0h1v1h-1zm-1 5h1v1h-1z"/>
		<path id="Path 12" class="s12" d="m124 0h1v1h-1zm-43 1h1v1h-1zm34 1h1v1h-1zm31 1h1v1h-1zm-62 1h1v1h-1zm26 0h1v1h-1zm-2 1h1v1h-1zm52 10h1v1h-1zm5 13h1v1h-1zm-14 2h1v1h-1zm-69 8h1v1h-1zm-1 5h1v1h-1zm56 2h1v1h-1zm2 3h1v1h-1zm9 2h1v1h-1zm-53 3h1v1h-1zm-14 2h1v1h-1zm48 14h1v1h-1zm-62 1h1v1h-1zm47 0h1v1h-1zm7 0h1v1h-1zm32 0h1v1h-1zm2 3h1v1h-1zm-154 1h1v1h-1zm155 2h1v1h-1zm-125 14h1v1h-1zm14 8h1v1h-1zm61 1h1v1h-1zm0 4h1v1h-1zm-72 9h1v1h-1zm51 2h1v1h-1zm-59 3h1v1h-1z"/>
		<path id="Path 13" class="s13" d="m135 0h1v1h-1zm13 4h1v1h-1zm-128 1h1v1h-1zm143 16h1v1h-1zm-75 3h1v1h-1zm76 0h1v1h-1zm1 5h1v1h-1zm-81 3h1v1h-1zm67 10h1v1h-1zm-21 1h1v1h-1zm-49 1h1v1h-1zm68 4h1v1h-1zm-2 4h1v1h-1zm-5 1h1v1h-1zm-47 1h1v1h-1zm50 1h1v1h-1zm-13 17h1v1h-1zm-62 1h1v1h-1zm26 16h1v1h-1zm-65 2h1v1h-1zm74 5h1v1h-1zm1 7v-3h1v3zm-56-1h1v1h-1zm46 4h1v1h-1zm2 3h1v1h-1zm16 4h1v1h-1zm2 2h1v1h-1zm-22 1h1v1h-1z"/>
		<path id="Path 14" class="s14" d="m136 102h1v1h-1zm-35 3h1v1h-1zm-9 1h1v1h-1zm43 1h1v1h-1zm-41 4h1v1h-1zm30 0h1v1h-1zm10 1h1v1h-1zm-24 2h1v1h-1zm23 5v-2h1v2zm9 0h1v1h-1z"/>
		<path id="Path 15" class="s15" d="m8 92h1v1h-1zm73 2h1v1h-1zm-1 1h1v1h-1zm-2 3h1v1h-1zm-41 1h1v1h-1zm100 0h1v1h-1zm-60 1h1v1h-1zm35 0h1v1h-1zm14 2h1v1h-1zm-50 1h1v1h-1zm60 0h1v1h-1zm-25 1h1v1h-1zm-80 1h1v1h-1zm62 0h1v1h-1zm-1 2h1v1h-1zm33 0h1v1h-1zm-95 1h1v1h-1zm105 0h1v1h-1zm-25 1h1v1h-1zm-72 1h1v1h-1zm38 0h1v1h-1zm-46 3h1v1h-1zm47 0h1v1h-1zm46 0h1v1h-1zm11 0h1v1h-1zm-12 1h1v1h-1zm-121 5v-2h1v2z"/>
		<path id="Path 16" class="s16" d="m87 90h1v1h-1zm-79 1h1v1h-1zm77 0h1v1h-1zm43 7h1v1h-1zm10 0h1v1h-1zm9 0h1v1h-1zm-20 1h1v1h-1zm19 0h1v1h-1zm-44 5v-3h1zm10-3h1v1h-1zm34 0h1v1h-1zm-20 3v-1h1l-1 2zm-50 1v-1h1v2h-1zm60-1h1v1h-1zm-25 2v-1h1l-1 2zm-10 0h1v1h-1zm-1 2h1v1h-1zm25 1v-1h1l-1 2zm-95 1v-1h1v4h-1v-1zm46-1h1v1h-1zm59 0h1v1h-1zm-25 2v-1h1v4h-1v-1zm14 1h1v1h-1zm-80 2h1v1h-1zm90 0h1v1h-1zm-14 1h1v1h-1z"/>
		<path id="Path 17" class="s17" d="m79 97h1v1h-1zm-39 1h1v1h-1zm106 2h1v1h-1zm-69 1h1v1h-1zm79 2h1v1h-1zm-124 1h1v1h-1zm123 0h1v1h-1zm-1 1h1v1h-1zm-123 1h1v1h-1zm45 3v-3h1v3zm77-3h1v1h-1zm-1 1h1v1h-1zm-110 8h1v1h-1zm100 3v-1h1v2h-1z"/>
		<path id="Path 18" class="s18" d="m124 1l1-1h10l1 1h1 1 1 2l1 1h1 1l1 1h1l1 1h1l1 1h1l1 1h1l1 1 1 1 1 1 1 1 1 1 1 1 1 1 1 1v1l1 1 1 1v1l1 1v1 1l1 1v1 1l1 1v1 1 1 1l1 1v1 7 2l-1 1v1 1 1 1l-1 1v1 1 1l-1 1v1l-1 1v1 1l-1 1v1l-1 1v1l-1 1-1 1v1l-1 1-1 1v1l-1 1-1 1-1 1-1 1 1 1v1l1 1 1 1v1l1 1v1 1 1 1 1 1l-1 1-1 1-1 1h-1l-1 1h-4l-1-1-1-1v-1l-1-1-1-1v-1l-1-1-1-1v-1l-1-1-1-1v-1l-1-1-1-1v-1l-1-1v-1l-1-1-1-1v-1l-1-1-1-1v-1l-1-1-1-1v-1l-1-1-1-1v-1l-1-1v-1l-1-1v-1-2-1-1l1-1 1-1 1-1h1l1-1h4l1 1h1v1l1 1 1 1v1l1 1 1 1v1l1 1v1l1 1 1 1 1 1 1-1v-1l1-1 1-1v-1l1-1v-1l1-1v-1-1l1-1v-1-1l1-1v-1-1-1-6-1-1-1l-1-1v-1-1l-1-1v-1l-1-1-1-1v-1l-1-1-1-1-1-1-1-1h-1l-1-1-1-1h-1l-1-1h-1l-1-1h-1-2l-1-1h-1-6-1l-1 1h-2-1l-1 1h-2l-1 1h-1l-1 1h-1l-1 1h-1l-1 1-1 1h-1l-1 1-1 1-1 1-1 1-1 1-1 1-1 1v1l-1 1-1 1v1l-1 1-1 1v1 1l-1 1v1l-1 1v1 1 1l-1 1v1 1 7 1 1 1l1 1v1l1 1v1l1 1v1l1 1 1 1v1l1 1 1 1 1 1h1l1 1 1 1h1l1 1h1 1l1 1h1 2l1 1h1 1 3 1l1-1h2 1l1-1h3l1 1h1l1 1v1l1 1v3 1l-1 1v1l-1 1-1 1-1 1h-1-1l-1 1h-1-1-1l-1 1h-11l-1-1h-1-1-2l-1-1h-1-1l-1-1h-1l-1-1h-1l-1-1h-1l-1-1h-1l-1-1-1-1-1-1-1-1-1-1-1-1-1-1-1-1v-1l-1-1-1-1v-1l-1-1v-1-1l-1-1v-1-1l-1-1v-1-1-1-1l-1-1v-1-7-1l1-1v-1-1-1-2l1-1v-1-1-1l1-1v-1l1-1v-1-1l1-1v-1l1-1v-1l1-1 1-1v-1l1-1v-1l1-1 1-1 1-1 1-1v-1l1-1 1-1 1-1h1l1-1 1-1 1-1 1-1h1l1-1 1-1h1l1-1h1l1-1h1l1-1h1l1-1h1 1l1-1h1 1l1-1h2 1 1zm-100 1l1-1h56l1 1h1l1 1v1l1 1v1 1 1l-1 1v1 1l-1 1-1 1-1 1-1 1-1 1-1 1-1 1-1 1-1 1-1 1-1 1-1 1-1 1-1 1-1 1-1 1-1 1-1 1-1 1-1 1-1 1-1 1h-1l-1 1-1 1-1 1-1 1-1 1-1 1-1 1-1 1-1 1-1 1-1 1-1 1-1 1-1 1-1 1-1 1-1 1-1 1-1 1-1 1-1 1-1 1-1 1-1 1-1 1-1 1-1 1-1 1-1 1-1 1-1 1-1 1-1 1-2 1-1 1-1 1v1h43l1 1h1l1 1v1l1 1v3l-1 1v1l-1 1-1 1-1 1h-1l-1 1h-60l-1-1h-1l-1-1v-1l-1-1v-3-1l1-1v-1l1-1 1-1 1-1 1-1 1-1 1-1 1-1 1-1 1-1 1-1 1-1 1-1 1-1 1-1 1-1 1-1 1-1 1-1 1-1 1-1 1-1 1-1 1-1 1-1 1-1 1-1 1-1 1-1 1-1 1-1 1-1 1-1h1l1-1 1-1 1-1 1-1 1-1 1-1 1-1 1-1 1-1 1-1 1-1 1-1 1-1 1-1 1-1 1-1 1-1 1-1 1-1 1-1 1-1 1-1 1-1 1-1 1-1 1-1v-1h-37l-1-1h-1-1v-1l-1-1v-1-3-1l1-1v-1l1-1 1-1zm-15 88l1-1h21v1 1 1 1l-1 1-1 1-1 1-1 1-1 1-1 1-1 1-1 1-1 1-1 1-1 1-1 1-1 1-1 1-1 1-1 1-1 1-1 1-1 1-1 1-1 1v1h15l1 1v1 1 1l-1 1h-22l-1-1v-2-1l1-1 1-1 1-1 1-1 1-1 1-1 1-1 1-1 1-1 1-1 1-1 1-1 1-1 1-1 1-1 1-1 1-1 1-1 1-1 1-1 1-1v-1h-13l-1-1v-1-1zm81 0l1-1h5l1 1h1 2l1 1 1 1 2 2 1 1v1l1 1v1 1 1 3 1 1 1 1l-1 1v1 1l-1 1-1 1v1l-1 1v1l1 1v1 1 1l-1 1h-1l-1-1-1-1-1-1v-1l-1-1-1-1v-1l-1-1v-1l-1-1-1-1v-1-1-1l1-1h2v1l1 1 1 1v1l1 1 1-1 1-1v-1l1-1v-1-1l1-3-1-1v-1l-1-1v-1l-1-1-1-1h-1l-1-1h-1-6-1l-1 1-1 1h-1l-1 1-1 1-1 1v1l-1 1-1 1v1 2 3 2l1 1v1l1 1 2 1 1 1h1 4 1 1 1v1 1 1l-1 1h-1l-1 1h-5l-1-1h-1-1l-1-1-1-1h-1l-1-1v-1l-1-1v-1l-1-1v-1-1-1-3-2-1-1l1-1v-1-1l1-1 1-1v-1l1-1 1-1 1-1 1-1h1l1-1h1l1-1h1zm-50 9l1-1h4l1 1h1 1l1 1 1 1v1 1 1l-1 1-1 1-1 1-1 1-1 1-1 1-1 1h-1l-1 1h-2v-1-1-1l1-1 1-1 1-1 1-1 1-1h1v-1l-1-1h-1-1-1l-1 1h-1l-1 1-1 1-1 1-1 1v1l-1 1v2 1l1 1 1 1 1 1h1l1 1h2 1l1-1h1l1-1 1-1h2l1 1v2l-1 1h-1l-1 1-1 1h-1-1l-1 1h-5l-1-1h-1l-1-1-1-1-1-1-1-1v-1-1-4-1-1l1-1v-1l1-1v-1l1-1 1-1 1-1h1l1-1h1zm73 0l1-1 2 1v2 1 1 1l-1 1v1 1 2l-1 1v3l1 1 1 1 1 1h1 1 1l1-1h1l1-1 1-1 1-1v-1-1l1-2v-1-1-1l1-2v-1-1-1l1-1 1-1h1l1 1v2 1l-1 1v1 1 2l-1 1v1 1 2l-1 1v1l-1 1v1l-1 1-2 1-1 1h-1-1l-1 1h-4l-1-1h-1l-1-1-1-1-1-1v-1-1-4-1-1-1l1-2v-1-1-1l1-1v-1zm25 0l1-1h1l1 1v2 1l-1 1v1 1 1 1l-1 1v1 1 1 1l-1 1v1 1 2l-1 1v1l-1 1h-1l-1-1v-2-1-1l1-1v-1-1-1-1l1-1v-1-1-1-1l1-1v-1-1-1-1zm9 0l1-1h15l1 1v2l-1 1-1 1-1 1-1 1-1 1-1 1-1 1-1 1-1 1-1 1-1 1-1 1-1 1-1 1v1h10v1 1 1l-1 1h-16v-1-2-1l1-1 1-1 1-1 1-1 1-1 1-1 1-1 1-1h1l1-1 1-1 1-1 1-1 1-1-1-1h-9v-1-1z"/>
		<path id="Path 19" class="s0" d="m7 91h1v1h-1zm130 2h1v1h-1zm-57 1h1v1h-1zm46 5h1v1h-1zm10 0h1v1h-1zm-11 4h1v1h-1zm-50 1h1v1h-1zm17 1h1v1h-1zm18 0h1v1h-1zm-10 1h1v1h-1zm24 2h1v1h-1zm-95 1h1v1h-1zm80 1h1v1h-1z"/>
		<path id="Path 20" class="s1" d="m23 1h1v1h-1zm59 0h1v1h-1zm60 0h1v1h-1zm-58 2h1v1h-1zm63 0h1v1h-1zm-38 1h1v1h-1zm40 0h1v1h-1zm-42 1h1v1h-1zm-22 1h1v1h-1zm67 0h1v1h-1zm-56 7h1v1h-1zm-1 1h1v1h-1zm65 0h1v1h-1zm-66 1h1v1h-1zm68 2h1v1h-1zm1 2h1v1h-1zm1 3h1v1h-1zm1 3h1v1h-1zm-79 1h1v1h-1zm-19 1h1v1h-1zm-1 1h1v1h-1zm19 0h1v1h-1zm-20 1h1v1h-1zm-1 1h1v1h-1zm20 0h1v1h-1zm-21 1h1v1h-1zm-1 1h1v1h-1zm-29 9h1v1h-1zm-1 1h1v1h-1zm-1 1h1v1h-1zm119 0h1v1h-1zm-120 1h1v1h-1zm107 0h1v1h-1zm-108 1h1v1h-1zm120 1h1v1h-1zm-24 1h1v1h-1zm14 0h1v1h-1zm2 3h1v1h-1zm4 4h1v1h-1zm-48 3h1v1h-1zm-65 4h1v1h-1zm67 0h1v1h-1zm-68 1h1v1h-1zm-1 1h1v1h-1zm-1 1h1v1h-1zm-1 1h1v1h-1zm80 3h1v1h-1zm3 1h1v1h-1zm13 0h1v1h-1zm6 0h1v1h-1zm23 0h1v1h-1zm2 3h1v1h-1zm-124 17h1v1h-1zm69 1h1v1h-1zm-13 5h1v1h-1zm19 2h1v1h-1zm-24 3h1v1h-1zm-45 4h1v1h-1zm-1 1h1v1h-1zm60 0h1v1h-1zm-52 4h1v1h-1zm-1 1h1v1h-1zm109 2h1v1h-1zm-50 1h1v1h-1zm49 0h1v1h-1zm-65 1h1v1h-1zm7 0h1v1h-1zm57 0h1v1h-1zm-102 2h1v1h-1zm55 0h1v1h-1zm23 0h1v1h-1zm-24 3h1v1h-1z"/>
		<path id="Path 21" class="s2" d="m84 91h1v1h-1zm54 3h1v1h-1zm-11 4h1v1h-1zm10 0h1v1h-1zm9 0h1v1h-1zm-110 1h1v1h-1zm87 13h1v1h-1zm-32 2h1v1h-1zm30 0h1v1h-1z"/>
		<path id="Path 22" class="s3" d="m117 1h1v1h-1zm-3 1h1v1h-1zm-95 4h1v1h-1zm85 1h1v1h-1zm-3 2h1v1h-1zm-40 5h1v1h-1zm-1 1h1v1h-1zm-1 1h1v1h-1zm-1 1h1v1h-1zm84 0h1v1h-1zm-85 1h1v1h-1zm-1 1h1v1h-1zm54 0h1v1h-1zm-55 1h1v1h-1zm35 0h1v1h-1zm-36 1h1v1h-1zm19 0h1v1h-1zm-1 1h1v1h-1zm-1 1h1v1h-1zm17 0h1v1h-1zm-18 1h1v1h-1zm-1 1h1v1h-1zm-1 1h1v1h-1zm33 2h1v1h-1zm-18 5h1v1h-1zm-1 3h1v1h-1zm47 7h1v1h-1zm-101 3h1v1h-1zm-1 1h1v1h-1zm-1 1h1v1h-1zm-1 1h1v1h-1zm115 0h1v1h-1zm8 0h1v1h-1zm-124 1h1v1h-1zm-1 1h1v1h-1zm124 0h1v1h-1zm-125 1h1v1h-1zm120 0h1v1h-1zm-121 1h1v1h-1zm19 0h1v1h-1zm-1 1h1v1h-1zm-1 1h1v1h-1zm58 0h1v1h-1zm-59 1h1v1h-1zm-1 1h1v1h-1zm-1 1h1v1h-1zm-1 1h1v1h-1zm-1 1h1v1h-1zm122 4h1v1h-1zm-51 2h1v1h-1zm-36 4h1v1h-1zm69 0h1v1h-1zm-67 2h1v1h-1zm-69 1h1v1h-1zm155 1h1v1h-1zm-62 3h1v1h-1zm52 6h1v1h-1zm-4 6h1v1h-1zm-37 6h1v1h-1zm56 8h1v1h-1zm-1 1h1v1h-1zm-1 1h1v1h-1zm-1 1h1v1h-1zm-112 1h1v1h-1zm111 0h1v1h-1zm-112 1h1v1h-1zm111 0h1v1h-1zm-1 1h1v1h-1zm-51 1h1v1h-1zm50 0h1v1h-1zm-1 1h1v1h-1zm-118 2h1v1h-1zm1 1h1v1h-1zm9 4h1v1h-1zm-20 1h1v1h-1z"/>
		<path id="Path 23" class="s4" d="m137 91h1v1h-1zm8 8h1v1h-1zm-34 2h1v1h-1zm-80 3h1v1h-1zm104 0h1v1h-1zm-105 2h1v1h-1zm104 3h1v1h-1zm-1 5h1v1h-1zm8 3h1v1h-1z"/>
		<path id="Path 24" class="s5" d="m86 90h1v1h-1zm51 2h1v1h-1zm-59 5h1v1h-1zm-2 4h1v1h-1zm78 3h1v1h-1zm-111 10h1v1h-1z"/>
		<path id="Path 25" class="s6" d="m22 2h1v1h-1zm61 0h1v1h-1zm-63 2h1v1h-1zm63 7h1v1h-1zm-1 1h1v1h-1zm-1 1h1v1h-1zm78 0h1v1h-1zm-79 1h1v1h-1zm-1 1h1v1h-1zm60 0h1v1h-1zm-61 1h1v1h-1zm37 0h1v1h-1zm46 0h1v1h-1zm-84 1h1v1h-1zm36 0h1v1h-1zm-37 1h1v1h-1zm-1 1h1v1h-1zm16 0h1v1h-1zm-17 1h1v1h-1zm-21 2h1v1h-1zm-1 1h1v1h-1zm96 0h1v1h-1zm-97 1h1v1h-1zm-1 1h1v1h-1zm-1 1h1v1h-1zm50 5h1v1h-1zm27 15h1v1h-1zm12 0h1v1h-1zm-93 2h1v1h-1zm-1 1h1v1h-1zm-1 1h1v1h-1zm-1 1h1v1h-1zm-1 1h1v1h-1zm105 1h1v1h-1zm-126 1h1v1h-1zm-1 1h1v1h-1zm-1 1h1v1h-1zm110 0h1v1h-1zm-111 1h1v1h-1zm142 1h1v1h-1zm-29 1h1v1h-1zm2 3h1v1h-1zm-47 5h1v1h-1zm2 3h1v1h-1zm45 1h1v1h-1zm22 0h1v1h-1zm-15 2h1v1h-1zm-10 8h1v1h-1zm-32 8h1v1h-1zm-13 8h1v1h-1zm-38 1h1v1h-1zm2 1h1v1h-1zm115 2h1v1h-1zm-1 1h1v1h-1zm-127 4h1v1h-1zm12 0h1v1h-1zm34 4h1v1h-1zm34 4h1v1h-1zm-21 1h1v1h-1zm55 0h1v1h-1zm11 1h1v1h-1zm-24 3h1v1h-1zm23 0h1v1h-1z"/>
		<path id="Path 26" class="s7" d="m77 99h1v1h-1zm76 6h1v1h-1zm-1 1h1v1h-1zm-1 1h1v1h-1zm-1 1h1v1h-1zm-1 1h1v1h-1z"/>
		<path id="Path 27" class="s8" d="m144 2h1v1h-1zm-123 1h1v1h-1zm91 0h1v1h-1zm38 2h1v1h-1zm-44 1h1v1h-1zm47 1h1v1h-1zm1 1h1v1h-1zm-54 2h1v1h-1zm58 2h1v1h-1zm-38 2h1v1h-1zm-3 1h1v1h-1zm24 1h1v1h-1zm-49 2h1v1h-1zm19 0h1v1h-1zm34 1h1v1h-1zm-38 2h1v1h-1zm-18 1h1v1h-1zm17 0h1v1h-1zm-1 1h1v1h-1zm-1 1h1v1h-1zm-17 1h1v1h-1zm16 0h1v1h-1zm-55 2h1v1h-1zm-1 1h1v1h-1zm-1 1h1v1h-1zm54 0h1v1h-1zm-55 1h1v1h-1zm-1 1h1v1h-1zm-1 1h1v1h-1zm54 3h1v1h-1zm-46 7h1v1h-1zm-1 1h1v1h-1zm-1 1h1v1h-1zm-1 1h1v1h-1zm-1 1h1v1h-1zm-1 1h1v1h-1zm117 2h1v1h-1zm-20 5h1v1h-1zm18 0h1v1h-1zm-1 2h1v1h-1zm-144 2h1v1h-1zm-1 1h1v1h-1zm-1 1h1v1h-1zm84 0h1v1h-1zm-85 1h1v1h-1zm144 0h1v1h-1zm-145 1h1v1h-1zm72 3h1v1h-1zm50 0h1v1h-1zm20 0h1v1h-1zm-1 1h1v1h-1zm-17 2h1v1h-1zm-5 2h1v1h-1zm-62 1h1v1h-1zm19 0h1v1h-1zm5 5h1v1h-1zm48 0h1v1h-1zm-10 3h1v1h-1zm12 0h1v1h-1zm-13 1h1v1h-1zm25 0h1v1h-1zm-153 1h1v1h-1zm143 1h1v1h-1zm8 0h1v1h-1zm-13 12h1v1h-1zm-10 4h1v1h-1zm10 0h1v1h-1zm23 0h1v1h-1zm-125 5h1v1h-1zm10 2h1v1h-1zm49 2h1v1h-1zm-63 1h1v1h-1zm94 4h1v1h-1zm-80 1h1v1h-1zm79 1h1v1h-1zm-25 1h1v1h-1zm-76 1h1v1h-1zm97 2h1v1h-1zm-81 1h1v1h-1z"/>
		<path id="Path 28" class="s9" d="m89 89h1v1h-1zm50 0h1v1h-1zm-56 3h1v1h-1zm-44 6h1v1h-1zm74 0h1v1h-1zm-68 15h1v1h-1zm37 5h1v1h-1z"/>
		<path id="Path 29" class="s10" d="m139 94h1v1h-1zm17 8h1v1h-1zm-120 17h1v1h-1zm49 0h1v1h-1zm30 0h1v1h-1z"/>
		<path id="Path 30" class="s11" d="m112 99h1v1h-1zm-77 1h1v1h-1zm-3 3h1v1h-1zm11 1h1v1h-1zm-5 5h1v1h-1zm110 1h1v1h-1zm-1 1h1v1h-1zm-1 1h1v1h-1zm-1 1h1v1h-1zm-1 1h1v1h-1zm-143 2h1v1h-1zm78 0h1v1h-1z"/>
		<path id="Path 31" class="s12" d="m84 8h1v1h-1zm19 0h1v1h-1zm52 1h1v1h-1zm1 1h1v1h-1zm-57 1h1v1h-1zm58 0h1v1h-1zm-33 2h1v1h-1zm9 0h1v1h-1zm4 1h1v1h-1zm-44 3h1v1h-1zm51 1h1v1h-1zm2 2h1v1h-1zm1 1h1v1h-1zm-45 5h1v1h-1zm-60 7h1v1h-1zm-1 1h1v1h-1zm-1 1h1v1h-1zm-1 1h1v1h-1zm18 0h1v1h-1zm-19 1h1v1h-1zm18 0h1v1h-1zm40 0h1v1h-1zm-41 1h1v1h-1zm-1 1h1v1h-1zm-1 1h1v1h-1zm112 0h1v1h-1zm-113 1h1v1h-1zm43 0h1v1h-1zm40 2h1v1h-1zm-7 1h1v1h-1zm-1 1h1v1h-1zm37 0h1v1h-1zm-37 9h1v1h-1zm2 3h1v1h-1zm2 3h1v1h-1zm25 2h1v1h-1zm-145 1h1v1h-1zm89 0h1v1h-1zm-90 1h1v1h-1zm91 0h1v1h-1zm-92 1h1v1h-1zm-1 1h1v1h-1zm-1 1h1v1h-1zm98 0h1v1h-1zm47 0h1v1h-1zm-146 1h1v1h-1zm-1 1h1v1h-1zm18 0h1v1h-1zm-19 1h1v1h-1zm134 1h1v1h-1zm-136 1h1v1h-1zm87 0h1v1h-1zm51 2h1v1h-1zm-48 1h1v1h-1zm-22 2h1v1h-1zm26 1h1v1h-1zm-27 1h1v1h-1zm-2 2h1v1h-1zm35 0h1v1h-1zm52 0h1v1h-1zm-49 1h1v1h-1zm21 0h1v1h-1zm25 1h1v1h-1zm-121 10h1v1h-1zm-1 1h1v1h-1zm75 0h1v1h-1zm-76 1h1v1h-1zm-1 1h1v1h-1zm58 0h1v1h-1zm-59 1h1v1h-1zm-1 1h1v1h-1zm58 0h1v1h-1zm-59 1h1v1h-1zm-1 1h1v1h-1zm-1 1h1v1h-1zm28 0h1v1h-1zm-29 1h1v1h-1zm19 0h1v1h-1zm100 0h1v1h-1zm-91 2h1v1h-1zm56 3h1v1h-1zm34 0h1v1h-1zm-25 2h1v1h-1zm24 3h1v1h-1zm-113 3h1v1h-1zm112 2h1v1h-1zm-46 2h1v1h-1zm29 0h1v1h-1z"/>
		<path id="Path 32" class="s13" d="m20 11h1v1h-1zm78 1h1v1h-1zm-75 1h1v1h-1zm85 7h1v1h-1zm41 4h1v1h-1zm1 2h1v1h-1zm1 3h1v1h-1zm-53 3h1v1h-1zm-38 1h1v1h-1zm-1 1h1v1h-1zm-1 1h1v1h-1zm-21 3h1v1h-1zm-1 1h1v1h-1zm-1 1h1v1h-1zm127 11h1v1h-1zm-36 1h1v1h-1zm-45 2h1v1h-1zm1 5h1v1h-1zm76 0h1v1h-1zm-75 3h1v1h-1zm50 1h1v1h-1zm-31 2h1v1h-1zm33 1h1v1h-1zm-110 1h1v1h-1zm-1 1h1v1h-1zm62 0h1v1h-1zm-83 3h1v1h-1zm87 2h1v1h-1zm1 1h1v1h-1zm41 3h1v1h-1zm10 0h1v1h-1zm-141 2h1v1h-1zm97 0h1v1h-1zm2 1h1v1h-1zm44 0h1v1h-1zm-140 2h1v1h-1zm61 0h1v1h-1zm45 1h1v1h-1zm12 0h1v1h-1zm-21 8h1v1h-1zm-13 3h1v1h-1zm-39 6h1v1h-1zm32 1h1v1h-1zm49 1h1v1h-1zm-110 1h1v1h-1zm-1 1h1v1h-1zm96 0h1v1h-1zm-97 1h1v1h-1zm-1 1h1v1h-1zm-1 1h1v1h-1zm113 0h1v1h-1zm-114 1h1v1h-1zm-1 1h1v1h-1zm-1 1h1v1h-1zm-1 1h1v1h-1zm29 0h1v1h-1zm62 0h1v1h-1zm-92 1h1v1h-1zm71 0h1v1h-1zm-72 1h1v1h-1zm-1 1h1v1h-1zm37 3h1v1h-1z"/>
		<path id="Path 33" class="s14" d="m138 90h1v1h-1zm-59 6h1v1h-1zm-37 9h1v1h-1zm-1 1h1v1h-1zm55 8h1v1h-1zm47 1h1v1h-1zm-1 1h1v1h-1z"/>
		<path id="Path 34" class="s15" d="m9 89h1v1h-1zm-1 1h1v1h-1zm74 3h1v1h-1zm-59 1h1v1h-1zm74 0h1v1h-1zm-75 1h1v1h-1zm-1 1h1v1h-1zm-1 1h1v1h-1zm-1 1h1v1h-1zm82 0h1v1h-1zm-83 1h1v1h-1zm-1 1h1v1h-1zm-1 1h1v1h-1zm18 0h1v1h-1zm-19 1h1v1h-1zm18 0h1v1h-1zm-19 1h1v1h-1zm-1 1h1v1h-1zm-1 1h1v1h-1zm-1 1h1v1h-1zm-1 1h1v1h-1zm30 0h1v1h-1zm-31 1h1v1h-1zm30 0h1v1h-1zm-31 1h1v1h-1zm85 0h1v1h-1zm-86 1h1v1h-1zm-1 1h1v1h-1zm-1 1h1v1h-1zm-1 1h1v1h-1zm-1 1h1v1h-1zm-1 1h1v1h-1zm29 0h1v1h-1zm80 1h1v1h-1zm-13 1h1v1h-1z"/>
		<path id="Path 35" class="s16" d="m138 91h1v1h-1zm-129 2h1v1h-1zm129 0h1v1h-1zm-39 2h1v1h-1zm1 1h1v1h-1zm-56 6h1v1h-1zm51 10h1v1h-1zm-17 2h1v1h-1zm19 1h1v1h-1zm15 2h1v1h-1zm-78 1h1v1h-1zm65 0h1v1h-1zm14 0h1v1h-1zm-111 1h1v1h-1zm132 0h1v1h-1z"/>
		<path id="Path 36" class="s17" d="m140 89h1v1h-1zm-2 3h1v1h-1zm-36 8h1v1h-1zm-57 3h1v1h-1zm49 7h1v1h-1zm-17 2h1v1h-1zm-45 4h1v1h-1zm1 1h1v1h-1zm48 0h1v1h-1zm19 2h1v1h-1z"/>
		<path id="Path 37" class="s18" d="m140 90l1-1h1l1 1v3l-1 1h-1-1-1v-1-1-1-1z"/>
		<path id="Path 38" class="s1" d="m142 93h1v1h-1z"/>
	</g>
</svg>